<?xml version="1.0" encoding="utf-8"?>
<!-- Generator: Adobe Illustrator 21.0.0, SVG Export Plug-In . SVG Version: 6.00 Build 0)  -->
<svg version="1.1" id="Capa_1" xmlns="http://www.w3.org/2000/svg" xmlns:xlink="http://www.w3.org/1999/xlink" x="0px" y="0px"
	 viewBox="0 0 34.9 31.7" style="enable-background:new 0 0 34.9 31.7;" xml:space="preserve">
<style type="text/css">
	.st0{opacity:9.000000e-02;fill:#FFFFFF;}
	.st1{fill:#7095CC;}
	.st2{fill:#C58A39;}
	.st3{fill:#597796;}
	.st4{fill:#86AC59;}
	.st5{fill:#AF762F;}
	.st6{fill:#94221D;}
	.st7{fill:#762020;}
	.st8{fill:#658140;}
</style>
<g>
	<path class="st0" d="M23.6,30.5H11.3c-5.5,0-10-4.5-10-10v-9.4c0-5.5,4.5-10,10-10h12.4c5.5,0,10,4.5,10,10v9.4
		C33.6,26,29.1,30.5,23.6,30.5z"/>
	<g>
		
			<image style="overflow:visible;opacity:0.22;" width="41" height="42" xlink:href="89079C6FFDB008A9.png"  transform="matrix(1 0 0 1 -4.1068 -6.9094)">
		</image>
		<g>
			<g>
				<path class="st1" d="M20.5,6.1c-0.5,0-1.2,0.5-2.4,1c0.2,0.1,0.3,0.3,0.4,0.5C18.8,8.3,18.3,9,18,9.7c-0.2,0.4-0.4,0.8-0.7,1.2
					c1.5,2.1,2.8,3.6,5,5c0.3-0.2,0.7-0.5,1.1-0.8c0.6-0.4,1-0.6,1.3-0.6c0.5,0,0.7,0.4,0.9,1.1c0.1,0.4,0.3,0.8,0.4,1.1
					c0.5-0.7,0.6-1.9,0.8-2.6c0.8-3-2.5-0.4-5.8-7.5C21,6.2,20.8,6.1,20.5,6.1"/>
				<path class="st1" d="M23.5,8.2c-0.5-1.3,0.1-2.9,1.4-3.4c1.3-0.5,2.8,0.1,3.4,1.4c0.5,1.3-0.1,2.8-1.4,3.4
					C25.5,10.2,24,9.5,23.5,8.2"/>
				<path class="st2" d="M22.3,15.8c-2.1,1.5-3.6,2.8-5,5c0.2,0.3,0.5,0.7,0.8,1.1c1,1.4,0.7,1.9-0.5,2.3c-0.4,0.1-0.8,0.3-1.1,0.4
					c0.7,0.5,1.9,0.6,2.6,0.8c0.3,0.1,0.6,0.1,0.8,0.1c1.8,0,0.3-2.9,6.7-5.9c1-0.5,0.3-1.2-0.5-3c-0.1,0.2-0.3,0.3-0.5,0.4
					c-0.2,0.1-0.3,0.1-0.5,0.1c-0.6,0-1.1-0.4-1.6-0.6C23.1,16.3,22.7,16.1,22.3,15.8"/>
				<path class="st3" d="M24.7,14.5c-0.3,0-0.7,0.2-1.3,0.6c-0.4,0.3-0.7,0.5-1.1,0.8c0.4,0.2,0.8,0.5,1.2,0.7
					c0.5,0.3,1.1,0.6,1.6,0.6c0.2,0,0.3,0,0.5-0.1c0.2-0.1,0.3-0.2,0.5-0.4c-0.1-0.3-0.3-0.7-0.4-1.1C25.5,14.9,25.2,14.5,24.7,14.5
					"/>
				<path class="st2" d="M25,22c1.3-0.5,2.9,0.1,3.4,1.4c0.5,1.3-0.1,2.9-1.4,3.4c-1.3,0.5-2.9-0.1-3.4-1.4C23,24.1,23.6,22.6,25,22
					"/>
				<path class="st4" d="M8.5,15.1c-0.5,0.7-0.6,1.9-0.8,2.6c-0.8,3,2.5,0.3,5.8,7.5c0.2,0.3,0.3,0.5,0.6,0.5c0.5,0,1.2-0.5,2.4-1
					c-0.2-0.1-0.3-0.3-0.4-0.5c-0.3-0.7,0.2-1.5,0.5-2.1c0.2-0.4,0.4-0.8,0.7-1.2c-1.5-2.1-2.8-3.6-5-5c-0.3,0.2-0.7,0.5-1.1,0.8
					c-0.6,0.4-1,0.6-1.3,0.6c-0.5,0-0.7-0.4-0.9-1.1C8.8,15.8,8.7,15.4,8.5,15.1"/>
				<path class="st5" d="M17.3,20.9c-0.2,0.4-0.5,0.8-0.7,1.2c-0.3,0.6-0.9,1.4-0.5,2.1c0.1,0.2,0.2,0.3,0.4,0.5
					c0.3-0.1,0.7-0.3,1.1-0.4c1.2-0.4,1.5-0.8,0.5-2.3C17.9,21.6,17.6,21.2,17.3,20.9"/>
				<path class="st4" d="M11.2,23.5c0.5,1.3-0.1,2.9-1.4,3.4c-1.3,0.5-2.8-0.1-3.4-1.4c-0.5-1.3,0.1-2.9,1.4-3.4
					C9.1,21.5,10.6,22.2,11.2,23.5"/>
				<path class="st6" d="M14.7,6.2c-1.8,0-0.3,2.9-6.7,5.9c-1,0.5-0.3,1.2,0.5,3c0.1-0.2,0.3-0.3,0.5-0.4c0.2-0.1,0.3-0.1,0.5-0.1
					c0.6,0,1.1,0.4,1.6,0.6c0.4,0.2,0.8,0.4,1.2,0.7c2.1-1.5,3.6-2.8,5-5c-0.2-0.3-0.5-0.7-0.8-1.1c-1-1.4-0.7-1.9,0.5-2.3
					c0.4-0.1,0.8-0.3,1.1-0.4c-0.7-0.5-1.9-0.6-2.6-0.8C15.2,6.2,15,6.2,14.7,6.2"/>
				<path class="st7" d="M18.1,7.1c-0.3,0.1-0.7,0.3-1.1,0.4c-1.2,0.4-1.5,0.8-0.5,2.3c0.3,0.4,0.5,0.7,0.8,1.1
					c0.2-0.4,0.5-0.8,0.7-1.2c0.3-0.6,0.9-1.4,0.5-2.1C18.4,7.4,18.3,7.2,18.1,7.1"/>
				<path class="st8" d="M9.5,14.6c-0.2,0-0.3,0-0.5,0.1c-0.2,0.1-0.3,0.2-0.5,0.4c0.1,0.3,0.3,0.7,0.4,1.1c0.2,0.7,0.5,1.1,0.9,1.1
					c0.3,0,0.7-0.2,1.3-0.6c0.4-0.3,0.7-0.5,1.1-0.8c-0.4-0.2-0.8-0.5-1.2-0.7C10.6,15,10.1,14.6,9.5,14.6"/>
				<path class="st6" d="M9.7,9.7c-1.3,0.5-2.9-0.1-3.4-1.4C5.7,6.9,6.4,5.4,7.7,4.9C9,4.3,10.6,5,11.1,6.3C11.6,7.6,11,9.2,9.7,9.7
					"/>
			</g>
		</g>
	</g>
</g>
</svg>
